<svg width="77" height="98" viewBox="0 0 77 98" fill="none" xmlns="http://www.w3.org/2000/svg">
<path d="M26.688 32.448C30.72 33.216 34.08 35.2 36.768 38.4C39.456 41.536 40.8 45.248 40.8 49.536C40.8 54.848 38.976 59.2 35.328 62.592C31.68 65.92 26.368 67.584 19.392 67.584H0V0H19.392C26.112 0 31.104 1.536 34.368 4.608C37.632 7.616 39.264 11.584 39.264 16.512C39.264 20.992 38.048 24.576 35.616 27.264C33.248 29.952 30.272 31.68 26.688 32.448ZM1.92 31.488H19.968C25.6 31.488 29.888 30.176 32.832 27.552C35.84 24.864 37.344 21.184 37.344 16.512C37.344 12.032 35.872 8.48 32.928 5.856C29.984 3.232 25.472 1.92 19.392 1.92H1.92V31.488ZM19.392 65.664C25.536 65.664 30.304 64.224 33.696 61.344C37.152 58.464 38.88 54.528 38.88 49.536C38.88 44.608 37.12 40.704 33.6 37.824C30.08 34.88 25.28 33.408 19.2 33.408H1.92L16 64.752L19.392 65.664Z" fill="#8B008B"/>
<path d="M76.192 31.92V97.584H74.272V36.624L47.104 97.584H45.184L17.92 36.624V97.584H16V31.92H17.92L46.144 95.088L74.272 31.92H76.192Z" fill="#8B008B"/>
</svg>
