<svg width="3590" height="1528" viewBox="0 0 3590 1528" fill="none" xmlns="http://www.w3.org/2000/svg">
<g clip-path="url(#clip0_185_182)">
<rect width="3590" height="1528" fill="#141414"/>
<path d="M1054.36 1813.13C2461.3 1729.32 4681.79 255.095 4480.62 1744.62C4324.34 2901.73 4352.46 4341.81 2942.51 3807.1C1064.33 2873.66 -3221.74 4111.5 -2643.48 2573.41C-1474.58 2816.25 -840.095 1925.97 1054.36 1813.13Z" fill="#FFBB00"/>
<path d="M1244.1 736.599C1249.77 727.389 1257.54 719.906 1267.41 714.15C1277.49 708.394 1288.94 705.515 1301.75 705.515C1316.65 705.515 1330.1 709.545 1342.07 717.603C1354.24 725.662 1363.8 737.175 1370.73 752.141C1377.87 766.877 1381.44 784.031 1381.44 803.602C1381.44 823.173 1377.87 840.557 1370.73 855.753C1363.8 870.72 1354.24 882.347 1342.07 890.636C1330.1 898.925 1316.65 903.07 1301.75 903.07C1288.72 903.07 1277.28 900.307 1267.41 894.781C1257.75 889.025 1249.98 881.657 1244.1 872.677V899.962H1200V644.384H1244.1V736.599ZM1336.4 803.602C1336.4 792.089 1334.19 782.189 1329.78 773.9C1325.58 765.38 1319.91 758.933 1312.77 754.559C1305.88 750.194 1298.05 747.929 1290.09 747.996C1282.11 747.996 1274.55 750.299 1267.41 754.904C1260.48 759.279 1254.81 765.726 1250.4 774.245C1246.2 782.764 1244.1 792.78 1244.1 804.293C1244.1 815.805 1246.2 825.821 1250.4 834.34C1254.81 842.86 1260.48 849.422 1267.41 854.027C1274.55 858.401 1282.11 860.589 1290.09 860.589C1298.28 860.589 1305.84 858.286 1312.77 853.681C1319.91 849.076 1325.58 842.514 1329.78 833.995C1334.19 825.476 1336.4 815.345 1336.4 803.602ZM1435.85 685.829C1428.08 685.829 1421.57 683.181 1416.32 677.885C1411.28 672.359 1408.76 665.567 1408.76 657.508C1408.76 649.45 1411.28 642.772 1416.32 637.477C1421.57 631.951 1428.08 629.188 1435.85 629.188C1443.62 629.188 1450.02 631.951 1455.06 637.477C1460.31 642.772 1462.94 649.45 1462.94 657.508C1462.94 665.567 1460.31 672.359 1455.06 677.885C1450.02 683.181 1443.62 685.829 1435.85 685.829ZM1457.58 708.624V899.962H1413.48V708.624H1457.58ZM1604.48 899.962L1545.26 818.453V899.962H1501.16V644.384H1545.26V789.787L1603.85 708.624H1661.18L1584.32 804.638L1661.81 899.962H1604.48ZM1665.02 804.293C1665.02 784.491 1668.69 767.222 1676.04 752.486C1683.39 737.52 1693.58 726.008 1706.6 717.949C1719.62 709.66 1734.53 705.515 1751.33 705.515C1772.96 705.515 1790.81 711.502 1804.88 723.475C1819.16 735.218 1828.71 751.796 1833.54 773.209H1785.99C1783.47 764.92 1779.16 758.473 1773.07 753.868C1767.19 749.033 1759.84 746.615 1751.02 746.615C1738.42 746.615 1728.45 751.681 1721.1 761.812C1713.75 771.712 1710.07 785.873 1710.07 804.293C1710.07 822.482 1713.75 836.643 1721.1 846.774C1728.45 856.674 1738.42 861.625 1751.02 861.625C1768.87 861.625 1780.53 852.875 1785.99 835.376H1833.55C1828.72 856.099 1819.17 872.562 1804.89 884.765C1790.61 896.968 1772.76 903.07 1751.34 903.07C1734.54 903.07 1719.63 899.04 1706.61 890.982C1693.69 882.81 1683.11 870.849 1676.05 856.444C1668.7 841.478 1665.03 824.094 1665.03 804.293H1665.02ZM1901.21 738.326C1906.61 728.478 1914.2 720.282 1923.26 714.495C1932.5 708.739 1943 705.861 1954.76 705.861V756.631H1943.1C1929.24 756.631 1918.74 760.2 1911.6 767.337C1904.67 774.475 1901.21 786.909 1901.21 804.638V899.962H1857.11V708.624H1901.21V738.326ZM2089.98 872.677C2085.15 881.426 2077.28 888.794 2066.35 894.781C2055.43 900.537 2043.68 903.415 2031.08 903.415C2020.16 903.415 2010.29 900.998 2001.47 896.162C1992.65 891.327 1985.72 884.65 1980.67 876.131C1975.64 867.611 1973.12 857.826 1973.12 846.774C1973.12 829.045 1979.1 814.539 1991.07 803.256C2003.25 791.974 2021.42 786.333 2045.57 786.333H2089.98C2089.56 774.13 2086.3 764.459 2080.22 757.322C2074.34 749.954 2066.15 746.27 2055.65 746.27C2046.41 746.27 2038.74 749.033 2032.65 754.559C2026.56 759.854 2022.68 767.338 2020.99 777.008H1976.9C1978.99 763.193 1983.51 750.875 1990.44 740.053C1997.52 729.058 2007.07 720.254 2018.16 714.495C2029.71 708.278 2042.62 705.17 2056.9 705.17C2071.6 705.17 2084.84 708.509 2096.6 715.186C2108.28 721.565 2118.01 731.523 2124.63 743.852C2131.35 756.285 2134.71 770.906 2134.71 787.715V899.962H2089.98V872.677ZM2043.99 864.388C2051.34 864.388 2058.48 862.661 2065.41 859.207C2072.55 855.753 2078.43 850.573 2083.05 843.665C2087.67 836.758 2089.98 828.584 2089.98 819.144V817.762H2048.09C2038.01 817.762 2030.45 819.95 2025.41 824.324C2020.58 828.699 2018.16 834.455 2018.16 841.593C2018.16 848.501 2020.36 854.027 2024.78 858.171C2029.4 862.316 2035.8 864.388 2043.99 864.388ZM2227.71 748.342V899.962H2182.98V748.342H2163.14V708.624H2182.98V698.953C2182.98 675.468 2189.07 658.199 2201.25 647.147C2213.43 636.095 2231.81 630.914 2256.38 631.605V672.359C2245.67 672.129 2238.21 674.086 2234.01 678.231C2229.81 682.375 2227.71 689.858 2227.71 700.68V708.624H2285.03V661.307H2329.44V708.624H2368.5V748.342H2329.44V840.902C2329.44 847.349 2330.81 852.07 2333.54 855.063C2336.48 857.826 2341.31 859.207 2348.03 859.207H2368.5V899.962H2340.78C2303.61 899.962 2285.03 880.16 2285.03 840.557V748.342H2227.71Z" fill="#FFBB00"/>
<path d="M565.427 220.875C-116.399 813.974 -2661.72 1260.19 -2212.29 230.797C-1980.25 -300.669 -1054.48 -2660.85 -25.2203 -2211.47C1004.04 -1762.09 4145.72 -637.704 2571.72 -356.204C1784.9 -215.487 1603.34 -400.035 565.427 220.875Z" fill="#FFBB00"/>
<path d="M1567.58 972.281H1577.83V1012.19C1577.83 1016.73 1576.85 1020.53 1574.88 1023.59C1572.91 1026.65 1570.23 1028.96 1566.84 1030.52C1563.48 1032.05 1559.72 1032.82 1555.56 1032.82C1551.27 1032.82 1547.44 1032.05 1544.08 1030.52C1540.71 1028.96 1538.06 1026.65 1536.12 1023.59C1534.21 1020.53 1533.25 1016.73 1533.25 1012.19V972.281H1543.5V1012.19C1543.5 1015.06 1544 1017.43 1544.98 1019.29C1545.96 1021.12 1547.36 1022.47 1549.16 1023.35C1550.97 1024.22 1553.1 1024.66 1555.56 1024.66C1558.02 1024.66 1560.14 1024.22 1561.92 1023.35C1563.72 1022.47 1565.12 1021.12 1566.1 1019.29C1567.09 1017.43 1567.58 1015.06 1567.58 1012.19V972.281ZM1600.02 972.281V1032H1589.73V972.281H1600.02ZM1651.09 1032H1638.33L1638.41 1023.84H1651.09C1654.78 1023.84 1657.87 1023.03 1660.36 1021.42C1662.87 1019.8 1664.76 1017.49 1666.02 1014.49C1667.3 1011.48 1667.95 1007.9 1667.95 1003.74V1000.5C1667.95 997.273 1667.58 994.416 1666.84 991.928C1666.13 989.439 1665.06 987.348 1663.64 985.652C1662.24 983.957 1660.52 982.672 1658.47 981.797C1656.45 980.922 1654.11 980.484 1651.46 980.484H1638.09V972.281H1651.46C1655.42 972.281 1659.04 972.951 1662.33 974.291C1665.61 975.604 1668.44 977.504 1670.82 979.992C1673.22 982.48 1675.07 985.461 1676.35 988.934C1677.64 992.406 1678.28 996.289 1678.28 1000.58V1003.74C1678.28 1008.03 1677.64 1011.92 1676.35 1015.39C1675.07 1018.86 1673.22 1021.84 1670.82 1024.33C1668.41 1026.79 1665.54 1028.69 1662.2 1030.03C1658.89 1031.34 1655.19 1032 1651.09 1032ZM1644.03 972.281V1032H1633.74V972.281H1644.03ZM1707.2 1032.82C1703.92 1032.82 1700.95 1032.29 1698.3 1031.22C1695.67 1030.13 1693.43 1028.61 1691.57 1026.67C1689.74 1024.73 1688.33 1022.44 1687.35 1019.82C1686.36 1017.19 1685.87 1014.36 1685.87 1011.33V1009.69C1685.87 1006.21 1686.38 1003.07 1687.39 1000.25C1688.4 997.438 1689.81 995.031 1691.61 993.035C1693.42 991.012 1695.55 989.467 1698.01 988.4C1700.47 987.334 1703.14 986.801 1706.01 986.801C1709.18 986.801 1711.96 987.334 1714.33 988.4C1716.71 989.467 1718.68 990.971 1720.24 992.912C1721.83 994.826 1723 997.109 1723.77 999.762C1724.56 1002.41 1724.96 1005.34 1724.96 1008.54V1012.76H1690.67V1005.67H1715.2V1004.89C1715.14 1003.11 1714.79 1001.44 1714.13 999.885C1713.5 998.326 1712.53 997.068 1711.22 996.111C1709.9 995.154 1708.15 994.676 1705.97 994.676C1704.33 994.676 1702.86 995.031 1701.58 995.742C1700.32 996.426 1699.27 997.424 1698.42 998.736C1697.57 1000.05 1696.92 1001.63 1696.45 1003.49C1696.01 1005.33 1695.79 1007.39 1695.79 1009.69V1011.33C1695.79 1013.27 1696.05 1015.07 1696.57 1016.74C1697.12 1018.38 1697.91 1019.82 1698.95 1021.05C1699.99 1022.28 1701.25 1023.25 1702.73 1023.96C1704.2 1024.64 1705.88 1024.99 1707.77 1024.99C1710.15 1024.99 1712.27 1024.51 1714.13 1023.55C1715.99 1022.59 1717.6 1021.24 1718.97 1019.49L1724.18 1024.54C1723.22 1025.93 1721.98 1027.27 1720.45 1028.55C1718.91 1029.81 1717.04 1030.84 1714.83 1031.63C1712.64 1032.42 1710.1 1032.82 1707.2 1032.82ZM1757.56 1019.98C1757.56 1019 1757.32 1018.11 1756.83 1017.32C1756.33 1016.5 1755.39 1015.76 1754 1015.1C1752.63 1014.45 1750.61 1013.84 1747.93 1013.3C1745.57 1012.78 1743.41 1012.16 1741.45 1011.45C1739.5 1010.71 1737.84 1009.82 1736.44 1008.79C1735.05 1007.75 1733.97 1006.52 1733.2 1005.09C1732.44 1003.67 1732.05 1002.03 1732.05 1000.17C1732.05 998.367 1732.45 996.658 1733.24 995.045C1734.04 993.432 1735.17 992.01 1736.65 990.779C1738.12 989.549 1739.91 988.578 1742.02 987.867C1744.15 987.156 1746.53 986.801 1749.16 986.801C1752.88 986.801 1756.06 987.43 1758.71 988.688C1761.39 989.918 1763.44 991.6 1764.87 993.732C1766.29 995.838 1767 998.217 1767 1000.87H1757.11C1757.11 999.693 1756.81 998.6 1756.21 997.588C1755.64 996.549 1754.76 995.715 1753.59 995.086C1752.41 994.43 1750.93 994.102 1749.16 994.102C1747.46 994.102 1746.05 994.375 1744.93 994.922C1743.84 995.441 1743.02 996.125 1742.47 996.973C1741.95 997.82 1741.69 998.75 1741.69 999.762C1741.69 1000.5 1741.83 1001.17 1742.1 1001.77C1742.4 1002.35 1742.89 1002.88 1743.58 1003.37C1744.26 1003.84 1745.19 1004.27 1746.37 1004.68C1747.57 1005.09 1749.07 1005.49 1750.88 1005.87C1754.27 1006.58 1757.18 1007.5 1759.62 1008.62C1762.08 1009.71 1763.96 1011.14 1765.28 1012.89C1766.59 1014.61 1767.24 1016.8 1767.24 1019.45C1767.24 1021.42 1766.82 1023.22 1765.97 1024.86C1765.15 1026.48 1763.95 1027.88 1762.36 1029.09C1760.78 1030.26 1758.88 1031.18 1756.66 1031.84C1754.47 1032.49 1752.01 1032.82 1749.28 1032.82C1745.26 1032.82 1741.86 1032.11 1739.07 1030.69C1736.28 1029.24 1734.16 1027.39 1732.71 1025.15C1731.29 1022.88 1730.58 1020.53 1730.58 1018.1H1740.13C1740.24 1019.93 1740.75 1021.39 1741.65 1022.48C1742.58 1023.55 1743.73 1024.33 1745.1 1024.82C1746.49 1025.29 1747.93 1025.52 1749.4 1025.52C1751.18 1025.52 1752.67 1025.29 1753.87 1024.82C1755.08 1024.33 1755.99 1023.67 1756.62 1022.85C1757.25 1022.01 1757.56 1021.05 1757.56 1019.98ZM1786.48 987.621V1032H1776.55V987.621H1786.48ZM1775.9 975.973C1775.9 974.469 1776.39 973.225 1777.38 972.24C1778.39 971.229 1779.78 970.723 1781.56 970.723C1783.31 970.723 1784.69 971.229 1785.7 972.24C1786.71 973.225 1787.22 974.469 1787.22 975.973C1787.22 977.449 1786.71 978.68 1785.7 979.664C1784.69 980.648 1783.31 981.141 1781.56 981.141C1779.78 981.141 1778.39 980.648 1777.38 979.664C1776.39 978.68 1775.9 977.449 1775.9 975.973ZM1825.73 987.621H1834.71V1030.77C1834.71 1034.76 1833.87 1038.15 1832.17 1040.94C1830.48 1043.73 1828.11 1045.85 1825.08 1047.3C1822.04 1048.78 1818.53 1049.51 1814.54 1049.51C1812.84 1049.51 1810.95 1049.27 1808.88 1048.78C1806.82 1048.28 1804.83 1047.49 1802.89 1046.4C1800.97 1045.33 1799.37 1043.92 1798.09 1042.17L1802.72 1036.35C1804.31 1038.23 1806.06 1039.62 1807.97 1040.49C1809.89 1041.37 1811.9 1041.8 1814 1041.8C1816.27 1041.8 1818.2 1041.38 1819.79 1040.53C1821.4 1039.71 1822.64 1038.49 1823.52 1036.88C1824.39 1035.27 1824.83 1033.3 1824.83 1030.97V997.67L1825.73 987.621ZM1795.59 1010.3V1009.44C1795.59 1006.08 1796 1003.02 1796.82 1000.25C1797.64 997.465 1798.81 995.072 1800.34 993.076C1801.88 991.053 1803.73 989.508 1805.92 988.441C1808.11 987.348 1810.58 986.801 1813.35 986.801C1816.22 986.801 1818.66 987.32 1820.69 988.359C1822.74 989.398 1824.45 990.889 1825.81 992.83C1827.18 994.744 1828.25 997.041 1829.01 999.721C1829.81 1002.37 1830.39 1005.33 1830.78 1008.58V1011.33C1830.42 1014.5 1829.82 1017.4 1828.97 1020.02C1828.12 1022.65 1827 1024.92 1825.61 1026.83C1824.21 1028.75 1822.49 1030.22 1820.44 1031.26C1818.42 1032.3 1816.03 1032.82 1813.26 1032.82C1810.56 1032.82 1808.11 1032.26 1805.92 1031.14C1803.76 1030.02 1801.9 1028.45 1800.34 1026.42C1798.81 1024.4 1797.64 1022.02 1796.82 1019.29C1796 1016.52 1795.59 1013.53 1795.59 1010.3ZM1805.47 1009.44V1010.3C1805.47 1012.33 1805.66 1014.21 1806.04 1015.96C1806.46 1017.71 1807.07 1019.26 1807.89 1020.6C1808.74 1021.91 1809.8 1022.95 1811.09 1023.71C1812.4 1024.45 1813.95 1024.82 1815.72 1024.82C1818.05 1024.82 1819.95 1024.33 1821.43 1023.35C1822.93 1022.36 1824.08 1021.04 1824.87 1019.37C1825.69 1017.67 1826.27 1015.79 1826.59 1013.71V1006.28C1826.43 1004.67 1826.09 1003.17 1825.57 1001.77C1825.08 1000.38 1824.41 999.16 1823.56 998.121C1822.71 997.055 1821.64 996.234 1820.36 995.66C1819.07 995.059 1817.56 994.758 1815.81 994.758C1814.03 994.758 1812.48 995.141 1811.17 995.906C1809.86 996.672 1808.78 997.725 1807.93 999.064C1807.11 1000.4 1806.5 1001.96 1806.09 1003.74C1805.68 1005.52 1805.47 1007.42 1805.47 1009.44ZM1854.77 997.096V1032H1844.89V987.621H1854.2L1854.77 997.096ZM1853.01 1008.17L1849.81 1008.13C1849.84 1004.98 1850.27 1002.1 1851.12 999.475C1852 996.85 1853.2 994.594 1854.73 992.707C1856.29 990.82 1858.15 989.371 1860.31 988.359C1862.47 987.32 1864.88 986.801 1867.53 986.801C1869.66 986.801 1871.59 987.102 1873.31 987.703C1875.06 988.277 1876.55 989.221 1877.78 990.533C1879.04 991.846 1880 993.555 1880.65 995.66C1881.31 997.738 1881.64 1000.29 1881.64 1003.33V1032H1871.71V1003.29C1871.71 1001.16 1871.4 999.475 1870.77 998.244C1870.17 996.986 1869.28 996.098 1868.1 995.578C1866.95 995.031 1865.52 994.758 1863.79 994.758C1862.1 994.758 1860.58 995.113 1859.24 995.824C1857.9 996.535 1856.77 997.506 1855.84 998.736C1854.94 999.967 1854.24 1001.39 1853.75 1003C1853.25 1004.62 1853.01 1006.34 1853.01 1008.17Z" fill="#F7F7F7"/>
</g>
<defs>
<clipPath id="clip0_185_182">
<rect width="3590" height="1528" fill="white"/>
</clipPath>
</defs>
</svg>
