<svg width="56" height="87" viewBox="0 0 56 87" fill="none" xmlns="http://www.w3.org/2000/svg">
<path d="M17.664 28.2L18.096 27.528C20.336 27.56 22.272 27.848 23.904 28.392C25.536 28.904 26.8 29.752 27.696 30.936C28.592 32.088 29.04 33.64 29.04 35.592C29.04 37.576 28.544 39.272 27.552 40.68C26.592 42.088 25.152 43.16 23.232 43.896C21.312 44.632 18.928 45 16.08 45H1.728V41.544L6.192 40.248L5.28 41.64V14.76L6.384 16.2L1.728 14.904V11.448L11.856 11.208H16.8C19.136 11.208 21.12 11.512 22.752 12.12C24.384 12.696 25.632 13.608 26.496 14.856C27.36 16.072 27.792 17.64 27.792 19.56C27.792 22.184 26.944 24.216 25.248 25.656C23.584 27.064 21.056 27.912 17.664 28.2ZM15.456 16.056H11.088L12.144 15V26.376L11.088 25.416H14.4C15.616 25.416 16.704 25.272 17.664 24.984C18.656 24.696 19.44 24.2 20.016 23.496C20.592 22.76 20.88 21.768 20.88 20.52C20.88 19.336 20.64 18.424 20.16 17.784C19.68 17.144 19.024 16.696 18.192 16.44C17.392 16.184 16.48 16.056 15.456 16.056ZM15.456 40.104C16.704 40.104 17.824 39.96 18.816 39.672C19.808 39.384 20.592 38.872 21.168 38.136C21.744 37.4 22.032 36.392 22.032 35.112C22.032 33.864 21.776 32.888 21.264 32.184C20.752 31.448 20.096 30.936 19.296 30.648C18.496 30.36 17.616 30.216 16.656 30.216H11.088L12.144 29.016V41.208L11.088 40.104H15.456Z" fill="#8B008B"/>
<path d="M54.176 43.664L49.712 45.2L50.672 43.424V70.64L49.712 69.248L54.176 70.544V74H40.784V70.544L45.44 69.2L44.336 70.64V47.552L45.344 47.6L36.56 65.216L32.24 65.456L23.792 47.504H24.8V70.64L24.032 69.344L28.352 70.544V74H15.728V70.544L20.192 69.248L19.28 70.64V43.424L20.192 45.104L15.728 43.904V40.448L27.68 40.208L35.6 58.592H34.784L43.088 40.448L54.176 40.208V43.664Z" fill="#8B008B"/>
</svg>
